<svg width="19" height="19" viewBox="0 0 19 19" fill="none" xmlns="http://www.w3.org/2000/svg">
<path fill-rule="evenodd" clip-rule="evenodd" d="M7.35299 7.0008H10.1946V8.41626C10.604 7.60218 11.6537 6.87073 13.2306 6.87073C16.2536 6.87073 16.9713 8.49124 16.9713 11.4645V16.971H13.9108V12.1416C13.9108 10.4484 13.5015 9.49355 12.4594 9.49355C11.0141 9.49355 10.4135 10.5226 10.4135 12.1408V16.971H7.35299V7.0008ZM2.10506 16.841H5.16553V6.87073H2.10506V16.841ZM5.60394 3.61975C5.60405 3.87627 5.55318 4.13026 5.45427 4.36695C5.35537 4.60364 5.2104 4.81831 5.02781 4.99849C4.6578 5.36622 4.15696 5.57206 3.63529 5.57079C3.11455 5.57045 2.61487 5.36513 2.24431 4.99925C2.06238 4.81847 1.9179 4.60355 1.81917 4.36683C1.72044 4.13011 1.66939 3.87623 1.66895 3.61975C1.66895 3.10176 1.87553 2.60597 2.24508 2.24024C2.61531 1.87387 3.1152 1.66847 3.63606 1.6687C4.15787 1.6687 4.65825 1.87452 5.02781 2.24024C5.39659 2.60597 5.60394 3.10176 5.60394 3.61975Z" fill="#1E1E1E"/>
</svg>
