<svg width="101" height="101" viewBox="0 0 101 101" fill="none" xmlns="http://www.w3.org/2000/svg">
<path d="M48.2314 6.4308C47.9158 6.47025 46.7914 6.60834 45.7656 6.7267C37.1451 7.6933 28.4852 11.2441 22.1924 16.373C13.848 23.1984 8.44297 33.1997 6.88457 44.7792C6.54922 47.1859 6.54922 53.814 6.88457 56.2206C8.04844 64.7622 11.3625 72.6923 16.373 78.8076C23.2182 87.1913 33.042 92.4583 45.0752 94.214C48.3104 94.6874 53.9719 94.7072 56.9111 94.2337C66.3996 92.6951 74.5664 88.6511 81.234 82.1808C88.1186 75.5132 92.3795 67.3464 94.1154 57.4634C94.727 54.0902 94.7664 47.4226 94.2338 44.0888C93.4842 39.532 92.2414 35.488 90.4463 31.6611C89.5191 29.649 89.026 29.1361 88.1383 29.1361C87.4676 29.1361 86.5996 29.9251 86.5996 30.5564C86.5996 30.7537 87.0533 31.8583 87.6057 33.0222C90.5055 39.1966 91.9061 46.4363 91.3734 52.6304C90.4266 63.7167 86.501 72.7121 79.6164 79.6163C73.5998 85.6132 65.8078 89.4599 56.8125 90.8605C54.0705 91.2945 47.3043 91.3537 44.8779 90.9788C39.8871 90.1898 36.1193 89.0654 32.3121 87.2308C19.6279 81.155 11.9346 70.1279 9.84355 55.0371C9.46875 52.3345 9.5082 46.3376 9.92246 43.8915C11.8754 32.4896 18.1484 22.9419 27.9131 16.4716C32.8645 13.197 38.2695 11.0468 44.2861 9.96185C47.0281 9.44897 53.025 9.35033 55.8854 9.74487C60.2252 10.3564 64.6439 11.6978 68.2934 13.5324C70.1871 14.4792 70.5225 14.5581 71.1734 14.0847C71.8244 13.6507 72.0217 12.9603 71.7652 12.2304C71.5877 11.7175 71.2523 11.4611 69.5559 10.672C65.6303 8.77826 61.3891 7.47631 57.1084 6.8056C55.1752 6.5097 49.415 6.25326 48.2314 6.4308Z" fill="#2264DC"/>
<path d="M81.1739 8.87684C80.9569 8.95575 78.0374 11.7964 74.6839 15.1499L68.5884 21.2651L68.7265 22.5276C68.7857 23.1983 68.9435 25.0526 69.0618 26.611L69.2788 29.4516L59.2183 39.5319C53.6751 45.0751 49.0985 49.8095 49.0196 50.0659C48.704 51.1311 49.8679 52.295 50.9331 51.9794C51.1896 51.9005 55.9239 47.3239 61.4671 41.7807L71.5474 31.7202L74.388 31.9372C75.9464 32.0556 77.8007 32.2134 78.4714 32.2725L79.7339 32.4106L85.8491 26.3151C89.2027 22.9616 92.0433 20.0224 92.1419 19.7659C92.2603 19.4503 92.2208 19.0952 92.0433 18.6415C91.6882 17.7932 91.2148 17.6749 87.0919 17.379C85.3757 17.2409 83.9159 17.1225 83.8962 17.0831C83.8765 17.0634 83.7187 15.4458 83.5609 13.4731C83.4228 11.5202 83.1861 9.74481 83.0677 9.52782C82.9099 9.21219 81.7657 8.58094 81.5882 8.6993C81.5685 8.6993 81.3909 8.77821 81.1739 8.87684ZM80.661 16.8661C80.9372 20.0815 80.9372 20.0618 84.4091 20.3577L87.0327 20.5747L82.7718 24.8356L78.5109 29.0966L75.5321 28.8796C73.9146 28.7415 72.514 28.6034 72.4548 28.5245C72.3956 28.4653 72.2378 27.1042 72.0997 25.5063L71.8827 22.5868L76.1239 18.2864C78.4714 15.9389 80.4046 14.1044 80.4243 14.2425C80.4441 14.3806 80.5624 15.5641 80.661 16.8661Z" fill="#2264DC"/>
<path d="M48.3313 20.634C43.0643 21.2652 38.7836 22.6066 35.0159 24.7963C30.3209 27.5185 26.3756 31.7203 23.8901 36.6717C22.8249 38.7627 21.6215 42.3529 21.1678 44.7793C20.6944 47.4029 20.6944 53.5971 21.1678 56.2207C23.2194 67.1492 30.7549 75.7105 41.1508 78.8865C49.0612 81.3129 56.2219 80.8789 63.3038 77.5846C66.3811 76.1642 68.8469 74.3888 71.6284 71.6271C76.1852 67.0506 78.8483 62.0203 80.0122 55.7275C80.5053 53.0644 80.5251 47.7974 80.0319 45.2724C79.3217 41.6428 77.4477 36.6519 76.4417 35.7051C75.7512 35.0541 74.8241 35.0935 74.2323 35.784C73.6208 36.5138 73.6602 36.8492 74.5874 38.6838C77.9606 45.3908 78.217 53.1828 75.2975 60.3435C71.8256 68.8851 64.6452 74.9806 55.8274 76.8744C53.4602 77.3676 47.9565 77.3676 45.4709 76.8547C37.1266 75.1187 30.2223 69.8912 26.4743 62.4148C25.6458 60.7578 24.5805 57.641 24.1465 55.5303C23.6336 53.0447 23.6336 47.541 24.1268 45.1738C25.2512 39.9068 27.5 35.8234 31.4651 31.8386C35.3709 27.9131 40.0461 25.3683 45.5696 24.165C47.8579 23.6719 52.3555 23.5732 54.7424 23.948C57.1096 24.3426 60.1475 25.3289 62.3174 26.4138C64.152 27.341 64.4874 27.3804 65.2172 26.7689C65.8682 26.1969 65.9471 25.2697 65.375 24.6385C64.5071 23.6521 59.6543 21.7781 56.2417 21.0877C54.4071 20.7326 49.7911 20.4564 48.3313 20.634Z" fill="#2264DC"/>
<path d="M47.6795 35.0344C41.505 36.1589 36.9087 40.4001 35.2912 46.4561C34.7191 48.626 34.7191 52.3346 35.2714 54.4651C36.9285 60.679 41.4853 64.8807 47.8373 65.9854C49.9875 66.3602 51.4275 66.3602 53.3015 66.0052C60.1466 64.6835 65.1177 59.4757 66.1238 52.5911C66.4197 50.4606 66.1041 46.9296 65.4925 45.6671C64.7824 44.2073 63.441 44.0298 62.6125 45.2725C62.2968 45.746 62.2968 45.8643 62.6519 47.1071C63.224 49.1192 63.1451 52.2755 62.4744 54.3468C61.0935 58.5288 57.9373 61.5469 53.7552 62.6319C52.1771 63.0462 48.8039 63.0462 47.2455 62.6319C44.9769 62.0204 43.2212 61.0143 41.6037 59.3968C36.7115 54.4848 36.672 46.5745 41.5248 41.7218C44.7796 38.4669 49.0209 37.2241 53.3607 38.2499C55.3925 38.743 56.0238 38.6247 56.4183 37.6581C56.6156 37.2044 56.6156 36.9479 56.3986 36.4745C56.0632 35.6657 55.0177 35.1923 52.8675 34.9358C50.7568 34.6596 49.5929 34.6794 47.6795 35.0344Z" fill="#2264DC"/>
</svg>
