<svg width="65" height="65" viewBox="0 0 65 65" fill="none" xmlns="http://www.w3.org/2000/svg">
<path d="M26.5927 6.27604L26.3167 6.54104V9.95292V13.3648L24.8592 13.9721L23.3906 14.5794L20.9504 12.1723C18.7421 9.975 18.4771 9.75417 18.1348 9.75417C17.7925 9.75417 17.4502 10.0633 13.7623 13.7623C10.0633 17.4502 9.75417 17.7925 9.75417 18.1348C9.75417 18.4771 9.975 18.7421 12.1723 20.9504L14.5794 23.3906L13.9721 24.8481L13.3648 26.3167H9.95292H6.54104L6.27604 26.5927L6 26.8577V32.5V38.1423L6.27604 38.4073L6.54104 38.6833H9.00333H11.4656L10.5712 39.2796C10.0744 39.6108 9.64375 39.9642 9.59958 40.0635C9.56646 40.1629 9.53333 40.7702 9.53333 41.3996C9.53333 42.4817 9.55542 42.581 9.80937 42.824C10.0302 43.0558 10.1848 43.1 10.7037 43.1H11.3331L11.2669 44.5023C11.2006 46.1365 10.9467 47.2075 10.3615 48.4442C9.975 49.2502 9.95292 49.2833 9.5775 49.2833C9.3125 49.2833 9.10271 49.3717 8.92604 49.5594C8.67208 49.8023 8.65 49.9127 8.65 50.7408C8.63896 51.9223 8.44021 52.386 7.63417 53.0375C6.87229 53.6558 6.34229 54.4067 6.15458 55.1575C6.06625 55.4887 6 56.3058 6 57.1008C6 58.3927 6.01104 58.47 6.27604 58.724L6.54104 59H22.3417H38.1423L38.4073 58.724L38.6833 58.459V55.0471V51.6352L40.1519 51.0279L41.6094 50.4206L44.0496 52.8277C46.2579 55.025 46.5229 55.2458 46.8652 55.2458C47.2075 55.2458 47.5498 54.9367 51.2377 51.2377C54.9367 47.5498 55.2458 47.2075 55.2458 46.8652C55.2458 46.5229 55.025 46.2579 52.8277 44.0496L50.4206 41.6094L51.0279 40.1519L51.6352 38.6833H55.0471H58.459L58.724 38.4073L59 38.1423V32.5V26.8577L58.724 26.5927L58.459 26.3167H55.0471H51.6352L51.0279 24.8481L50.4206 23.3906L52.8277 20.9504C55.025 18.7421 55.2458 18.4771 55.2458 18.1348C55.2458 17.7925 54.9367 17.4502 51.2377 13.7623C47.5498 10.0633 47.2075 9.75417 46.8652 9.75417C46.5229 9.75417 46.2579 9.975 44.0496 12.1723L41.6094 14.5794L40.1519 13.9721L38.6833 13.3648V9.95292V6.54104L38.4073 6.27604L38.1423 6H32.5H26.8577L26.5927 6.27604ZM36.9167 10.6375C36.9167 12.8569 36.8835 13.5083 36.7842 13.5083C36.7069 13.5083 36.2321 13.431 35.7352 13.3427C35.2383 13.2544 34.3108 13.155 33.6704 13.1108L32.5 13.0335V13.9169V14.8002L33.6373 14.8775C41.6867 15.4296 48.2675 21.2485 49.8575 29.2206C50.2108 30.9983 50.2108 34.0017 49.8575 35.7794C48.5767 42.1835 44.0496 47.329 37.9767 49.2723C37.005 49.5815 35.5475 49.9458 35.2494 49.9458C35.1942 49.9458 35.15 48.5104 35.15 46.3683V42.7908L35.7352 42.6031C39.2244 41.4658 41.9406 38.5177 42.846 34.8629C43.1331 33.7146 43.1 31.0646 42.7908 29.9494C41.7198 26.0075 38.7717 23.1256 34.8629 22.154C33.8029 21.9 31.175 21.889 30.1371 22.154C28.271 22.6287 26.6369 23.5121 25.2346 24.826L24.296 25.7204L24.9806 26.2946L25.6652 26.8577L26.2835 26.2504C27.3988 25.1352 28.7348 24.3844 30.4573 23.9096C31.4069 23.6446 33.6262 23.6667 34.6531 23.9317C41.0021 25.61 43.4312 33.2177 39.2133 38.2196C37.9215 39.7433 35.8346 40.9358 34.0569 41.1788L33.5158 41.245L32.1025 39.9973L30.7002 38.7385L33.1625 38.6833C36.2542 38.6171 36.0333 38.7827 36.0333 36.4419V34.7746L33.825 32.5552L31.6167 30.3358V29.044C31.6167 27.7852 31.6056 27.73 31.3296 27.454C31.0646 27.189 30.9983 27.1779 30.3579 27.2331C28.9556 27.3656 27.7631 28.0613 27.0233 29.1544C26.7915 29.5077 26.5927 29.8058 26.5817 29.8279C26.5817 29.839 26.2835 29.9273 25.9302 30.0156C24.031 30.5125 22.5625 31.9921 22.0656 33.9023C21.9331 34.4213 21.9 35.5365 21.9 40.2292V45.9267L22.7833 48.124C23.5562 50.0342 23.6667 50.4096 23.6667 50.9948C23.6556 51.845 23.3906 52.4523 22.7944 52.916L22.3417 53.2804L21.889 52.916C21.2375 52.4081 21.0167 51.856 21.0167 50.7408C21.0167 49.9127 20.9946 49.8023 20.7406 49.5594C20.564 49.3717 20.3542 49.2833 20.0892 49.2833C19.7137 49.2833 19.6917 49.2502 19.3052 48.4442C18.72 47.2075 18.466 46.1365 18.3998 44.5023L18.3335 43.1H18.9629C19.4819 43.1 19.6365 43.0558 19.8573 42.824C20.1112 42.57 20.1333 42.4817 20.1333 41.3885C20.1333 40.7371 20.0892 40.1298 20.034 40.0194C19.9677 39.909 19.4487 39.5115 18.8746 39.125L17.8146 38.4294L18.1679 38.0429C18.3556 37.8221 18.6648 37.3142 18.8525 36.9167C19.1617 36.2763 19.1948 36.0996 19.1948 35.15C19.1948 34.2004 19.1617 34.0348 18.8415 33.3612C18.3556 32.3344 17.7373 31.694 16.7325 31.1971C15.9375 30.8106 15.8381 30.7885 14.8333 30.7885C13.8285 30.7885 13.7292 30.8106 12.9342 31.1971C11.9404 31.694 11.3 32.3344 10.8473 33.3171C10.3615 34.355 10.3063 35.7021 10.6927 36.729C10.77 36.9056 10.6485 36.9167 9.26833 36.9167H7.76667V32.5V28.0833H11.0129C13.939 28.0833 14.2812 28.0613 14.48 27.8846C14.7671 27.6527 16.4896 23.501 16.4896 23.0594C16.4896 22.7944 16.1252 22.3638 14.204 20.4425L11.9073 18.1458L15.0321 15.0321L18.1458 11.9073L20.4425 14.204C22.3638 16.1252 22.7944 16.4896 23.0594 16.4896C23.501 16.4896 27.6527 14.7671 27.8956 14.48C28.0612 14.2812 28.0833 13.939 28.0833 11.0129V7.76667H32.5H36.9167V10.6375ZM50.001 15.0542L53.0927 18.1458L51.05 20.1885L49.0073 22.2313L48.2896 21.2154C47.3731 19.9015 45.0985 17.6269 43.7846 16.7104L42.7687 15.9927L44.7783 13.9831C45.8935 12.8679 46.821 11.9625 46.8542 11.9625C46.8873 11.9625 48.3006 13.3538 50.001 15.0542ZM57.2333 32.5V36.9167H54.3625C52.1431 36.9167 51.4917 36.8835 51.4917 36.7731C51.4917 36.7069 51.58 36.1879 51.6794 35.6469C51.8119 34.9292 51.8671 34.0458 51.8671 32.5C51.8671 30.9542 51.8119 30.0708 51.6794 29.3531C51.58 28.801 51.4917 28.2931 51.4917 28.2158C51.4917 28.1165 52.1431 28.0833 54.3625 28.0833H57.2333V32.5ZM32.0915 33.3612L34.2667 35.5365V36.2321V36.9167H31.429L28.5802 36.9056L27.7521 36.1327L26.924 35.3708L26.3498 36.0002C26.0296 36.3535 25.7867 36.6737 25.7977 36.7069C25.8088 36.74 27.5202 38.2858 29.596 40.1298L33.3833 43.4865V46.3794V49.2833H29.2648H25.1462L24.3954 47.4173L23.6556 45.5623L23.6887 39.8869L23.7219 34.2115L24.02 33.6483C24.1856 33.3392 24.4396 32.9306 24.5942 32.754C25.0027 32.2681 26.0627 31.7492 26.8246 31.6608C27.6858 31.5615 27.8404 31.4731 28.0944 30.8769C28.4146 30.1371 28.7237 29.7506 29.2869 29.3863L29.7948 29.066L29.85 30.126L29.9052 31.175L32.0915 33.3612ZM15.6504 32.6325C16.2577 32.8092 17.1742 33.7256 17.3508 34.3329C17.66 35.3708 17.4392 36.199 16.6552 36.9719C15.54 38.0981 14.1267 38.0981 13.0115 36.9719C11.8852 35.8567 11.8852 34.4433 13.0115 33.3281C13.7844 32.5442 14.6125 32.3344 15.6504 32.6325ZM17.3398 40.2402C18.0244 40.6929 18.3667 40.991 18.3667 41.1235C18.3667 41.3223 18.2121 41.3333 14.8333 41.3333C11.4656 41.3333 11.3 41.3223 11.3 41.1235C11.3 40.991 11.6423 40.6929 12.3269 40.2402L13.3427 39.5667H14.8333H16.3129L17.3398 40.2402ZM49.9679 49.9679L46.8542 53.0927L44.8004 51.039L42.7467 48.9852L43.2877 48.654C44.8335 47.7044 47.2296 45.3525 48.3558 43.7073L48.9963 42.7577L51.05 44.8115L53.0927 46.8542L49.9679 49.9679ZM16.6 44.0827C16.6 45.496 16.7767 46.6444 17.1962 47.8479C17.395 48.4221 17.5938 48.9852 17.6379 49.0846C17.7262 49.2723 17.5496 49.2833 14.8333 49.2833C12.1171 49.2833 11.9404 49.2723 12.0287 49.0846C12.0729 48.9852 12.2717 48.4221 12.4704 47.8479C12.89 46.6444 13.0667 45.496 13.0667 44.0827V43.1H14.8333H16.6V44.0827ZM19.2942 51.6794C19.4046 52.6621 19.8131 53.3688 20.7406 54.219C21.6902 55.0802 21.9 55.4887 21.9 56.5156V57.2333H14.8333H7.76667V56.5156C7.76667 55.4887 7.97646 55.0802 8.92604 54.219C9.85354 53.3688 10.2621 52.6621 10.3725 51.6794L10.4498 51.05H14.8333H19.2169L19.2942 51.6794ZM33.4275 51.6794C33.5379 52.6621 33.9465 53.3688 34.874 54.219C35.8235 55.0802 36.0333 55.4887 36.0333 56.5156V57.2333H29.85H23.6667V56.5156C23.6667 56.1292 23.6115 55.555 23.5452 55.2569L23.4237 54.6937L24.0973 54.0754C24.8702 53.3577 25.2898 52.5958 25.3892 51.6794L25.4665 51.05H29.4083H33.3502L33.4275 51.6794ZM36.9167 52.6179C36.9167 53.5344 36.8946 53.711 36.7842 53.5785C36.7069 53.4792 36.3977 53.2142 36.1106 52.9823C35.6248 52.5958 35.2604 52.11 35.2604 51.834C35.2604 51.7346 36.1217 51.5358 36.6737 51.5027C36.9056 51.4917 36.9167 51.5248 36.9167 52.6179Z" fill="#2264DC"/>
</svg>
